<mxfile host="app.diagrams.net" modified="2023-07-22T06:00:04.219Z" agent="Mozilla/5.0 (Macintosh; Intel Mac OS X 10_15_7) AppleWebKit/537.36 (KHTML, like Gecko) Chrome/115.0.0.0 Safari/537.36" etag="5B28M7HE1ZkEIxPz1UmU" version="21.5.1" type="github">
  <diagram id="C5RBs43oDa-KdzZeNtuy" name="Page-1">
    <mxGraphModel dx="1383" dy="767" grid="1" gridSize="10" guides="1" tooltips="1" connect="1" arrows="1" fold="1" page="1" pageScale="1" pageWidth="827" pageHeight="1169" background="none" math="0" shadow="1">
      <root>
        <mxCell id="WIyWlLk6GJQsqaUBKTNV-0" />
        <mxCell id="WIyWlLk6GJQsqaUBKTNV-1" parent="WIyWlLk6GJQsqaUBKTNV-0" />
        <mxCell id="GrCnd2OItdCm_yfxnjEH-13" value="" style="edgeStyle=orthogonalEdgeStyle;rounded=0;orthogonalLoop=1;jettySize=auto;html=1;" edge="1" parent="WIyWlLk6GJQsqaUBKTNV-1" source="WIyWlLk6GJQsqaUBKTNV-3" target="GrCnd2OItdCm_yfxnjEH-12">
          <mxGeometry relative="1" as="geometry" />
        </mxCell>
        <mxCell id="WIyWlLk6GJQsqaUBKTNV-3" value="User Talk" style="rounded=1;whiteSpace=wrap;html=1;fontSize=12;glass=0;strokeWidth=1;shadow=0;" parent="WIyWlLk6GJQsqaUBKTNV-1" vertex="1">
          <mxGeometry x="160" y="80" width="120" height="40" as="geometry" />
        </mxCell>
        <mxCell id="GrCnd2OItdCm_yfxnjEH-15" value="" style="edgeStyle=orthogonalEdgeStyle;rounded=0;orthogonalLoop=1;jettySize=auto;html=1;" edge="1" parent="WIyWlLk6GJQsqaUBKTNV-1" source="GrCnd2OItdCm_yfxnjEH-12" target="GrCnd2OItdCm_yfxnjEH-14">
          <mxGeometry relative="1" as="geometry" />
        </mxCell>
        <mxCell id="GrCnd2OItdCm_yfxnjEH-12" value="Vox Record" style="whiteSpace=wrap;html=1;rounded=1;glass=0;strokeWidth=1;shadow=0;" vertex="1" parent="WIyWlLk6GJQsqaUBKTNV-1">
          <mxGeometry x="340" y="70" width="120" height="60" as="geometry" />
        </mxCell>
        <mxCell id="GrCnd2OItdCm_yfxnjEH-17" value="" style="edgeStyle=orthogonalEdgeStyle;rounded=0;orthogonalLoop=1;jettySize=auto;html=1;" edge="1" parent="WIyWlLk6GJQsqaUBKTNV-1" source="GrCnd2OItdCm_yfxnjEH-14" target="GrCnd2OItdCm_yfxnjEH-16">
          <mxGeometry relative="1" as="geometry" />
        </mxCell>
        <mxCell id="GrCnd2OItdCm_yfxnjEH-14" value="Upload realtime audio stream data" style="whiteSpace=wrap;html=1;rounded=1;glass=0;strokeWidth=1;shadow=0;" vertex="1" parent="WIyWlLk6GJQsqaUBKTNV-1">
          <mxGeometry x="550" y="70" width="120" height="60" as="geometry" />
        </mxCell>
        <mxCell id="GrCnd2OItdCm_yfxnjEH-21" value="" style="edgeStyle=orthogonalEdgeStyle;rounded=0;orthogonalLoop=1;jettySize=auto;html=1;" edge="1" parent="WIyWlLk6GJQsqaUBKTNV-1" source="GrCnd2OItdCm_yfxnjEH-16" target="GrCnd2OItdCm_yfxnjEH-20">
          <mxGeometry relative="1" as="geometry" />
        </mxCell>
        <mxCell id="GrCnd2OItdCm_yfxnjEH-16" value="RASR" style="whiteSpace=wrap;html=1;rounded=1;glass=0;strokeWidth=1;shadow=0;" vertex="1" parent="WIyWlLk6GJQsqaUBKTNV-1">
          <mxGeometry x="550" y="240" width="120" height="60" as="geometry" />
        </mxCell>
        <mxCell id="GrCnd2OItdCm_yfxnjEH-23" value="" style="edgeStyle=orthogonalEdgeStyle;rounded=0;orthogonalLoop=1;jettySize=auto;html=1;" edge="1" parent="WIyWlLk6GJQsqaUBKTNV-1" source="GrCnd2OItdCm_yfxnjEH-20" target="GrCnd2OItdCm_yfxnjEH-22">
          <mxGeometry relative="1" as="geometry" />
        </mxCell>
        <mxCell id="GrCnd2OItdCm_yfxnjEH-24" value="Yes" style="edgeLabel;html=1;align=center;verticalAlign=middle;resizable=0;points=[];" vertex="1" connectable="0" parent="GrCnd2OItdCm_yfxnjEH-23">
          <mxGeometry x="-0.0741" y="-1" relative="1" as="geometry">
            <mxPoint as="offset" />
          </mxGeometry>
        </mxCell>
        <mxCell id="GrCnd2OItdCm_yfxnjEH-28" value="" style="edgeStyle=orthogonalEdgeStyle;rounded=0;orthogonalLoop=1;jettySize=auto;html=1;" edge="1" parent="WIyWlLk6GJQsqaUBKTNV-1" source="GrCnd2OItdCm_yfxnjEH-20" target="GrCnd2OItdCm_yfxnjEH-27">
          <mxGeometry relative="1" as="geometry" />
        </mxCell>
        <mxCell id="GrCnd2OItdCm_yfxnjEH-30" value="No" style="edgeLabel;html=1;align=center;verticalAlign=middle;resizable=0;points=[];" vertex="1" connectable="0" parent="GrCnd2OItdCm_yfxnjEH-28">
          <mxGeometry x="0.0296" y="3" relative="1" as="geometry">
            <mxPoint as="offset" />
          </mxGeometry>
        </mxCell>
        <mxCell id="GrCnd2OItdCm_yfxnjEH-20" value="match a sentence &amp;amp;&amp;amp; if user not talk" style="rhombus;whiteSpace=wrap;html=1;rounded=1;glass=0;strokeWidth=1;shadow=0;" vertex="1" parent="WIyWlLk6GJQsqaUBKTNV-1">
          <mxGeometry x="570" y="400" width="80" height="80" as="geometry" />
        </mxCell>
        <mxCell id="GrCnd2OItdCm_yfxnjEH-26" value="" style="edgeStyle=orthogonalEdgeStyle;rounded=0;orthogonalLoop=1;jettySize=auto;html=1;" edge="1" parent="WIyWlLk6GJQsqaUBKTNV-1" source="GrCnd2OItdCm_yfxnjEH-22" target="GrCnd2OItdCm_yfxnjEH-25">
          <mxGeometry relative="1" as="geometry" />
        </mxCell>
        <mxCell id="GrCnd2OItdCm_yfxnjEH-22" value="Send to open ai" style="whiteSpace=wrap;html=1;rounded=1;glass=0;strokeWidth=1;shadow=0;" vertex="1" parent="WIyWlLk6GJQsqaUBKTNV-1">
          <mxGeometry x="800" y="410" width="120" height="60" as="geometry" />
        </mxCell>
        <mxCell id="GrCnd2OItdCm_yfxnjEH-25" value="Generate text" style="whiteSpace=wrap;html=1;rounded=1;glass=0;strokeWidth=1;shadow=0;" vertex="1" parent="WIyWlLk6GJQsqaUBKTNV-1">
          <mxGeometry x="800" y="620" width="120" height="60" as="geometry" />
        </mxCell>
        <mxCell id="GrCnd2OItdCm_yfxnjEH-31" style="edgeStyle=orthogonalEdgeStyle;rounded=0;orthogonalLoop=1;jettySize=auto;html=1;exitX=1;exitY=0.5;exitDx=0;exitDy=0;" edge="1" parent="WIyWlLk6GJQsqaUBKTNV-1" source="GrCnd2OItdCm_yfxnjEH-27">
          <mxGeometry relative="1" as="geometry">
            <mxPoint x="860" y="555" as="targetPoint" />
          </mxGeometry>
        </mxCell>
        <mxCell id="GrCnd2OItdCm_yfxnjEH-32" value="abort generate" style="edgeLabel;html=1;align=center;verticalAlign=middle;resizable=0;points=[];" vertex="1" connectable="0" parent="GrCnd2OItdCm_yfxnjEH-31">
          <mxGeometry x="-0.1078" relative="1" as="geometry">
            <mxPoint as="offset" />
          </mxGeometry>
        </mxCell>
        <mxCell id="GrCnd2OItdCm_yfxnjEH-27" value="update user talk to new content" style="whiteSpace=wrap;html=1;rounded=1;glass=0;strokeWidth=1;shadow=0;" vertex="1" parent="WIyWlLk6GJQsqaUBKTNV-1">
          <mxGeometry x="550" y="525" width="120" height="60" as="geometry" />
        </mxCell>
      </root>
    </mxGraphModel>
  </diagram>
</mxfile>
